<svg width="195" height="49" viewBox="0 0 195 49" fill="none" xmlns="http://www.w3.org/2000/svg">
<path d="M121.239 34.0539C120.959 34.3924 121.114 34.9047 121.55 34.9594V34.9594C121.849 34.9782 122.147 34.9876 122.446 34.9876C123.193 34.9876 123.911 34.8844 124.602 34.6779C125.293 34.4715 125.937 34.1807 126.535 33.8054C127.151 33.4113 127.692 32.9422 128.159 32.398V32.398C128.851 31.5951 130.142 31.3552 130.887 32.1086L132.904 34.146C134.081 35.3342 134.267 37.2297 133.062 38.389C132.871 38.5736 132.674 38.7533 132.471 38.9282C131.557 39.7351 130.558 40.42 129.475 40.9829C128.411 41.5459 127.281 41.9681 126.086 42.2496C124.91 42.5498 123.697 42.6999 122.446 42.6999C120.336 42.6999 118.348 42.3059 116.481 41.5177C114.633 40.7296 113.009 39.6319 111.609 38.2245C110.227 36.8171 109.135 35.1471 108.332 33.2143C107.529 31.2627 107.128 29.1235 107.128 26.7967C107.128 24.4136 107.529 22.2368 108.332 20.2665C109.135 18.2962 110.227 16.6167 111.609 15.2281C113.009 13.8395 114.633 12.7606 116.481 11.9912C118.348 11.2218 120.336 10.8372 122.446 10.8372C123.697 10.8372 124.92 10.9873 126.114 11.2875C127.309 11.5878 128.439 12.0193 129.503 12.5823C130.586 13.1452 131.594 13.8395 132.527 14.6652V14.6652C134.176 16.09 134.031 18.5589 132.644 20.239L121.239 34.0539ZM123.916 19.7929C124.245 19.3551 124.054 18.7197 123.51 18.6621V18.6621C123.174 18.6246 122.819 18.6058 122.446 18.6058C121.4 18.6058 120.411 18.8029 119.478 19.1969C118.563 19.5722 117.76 20.1164 117.069 20.8295C116.397 21.5425 115.865 22.4057 115.473 23.419C115.081 24.4136 114.885 25.5394 114.885 26.7967C114.885 27.0782 114.894 27.3972 114.913 27.7537C114.95 28.1102 114.997 28.4761 115.053 28.8514C115.128 29.208 115.212 29.5551 115.305 29.8929V29.8929C115.427 30.3361 115.977 30.3822 116.253 30.0143L123.916 19.7929Z" fill="white"/>
<path d="M30.6361 26.7963C30.6361 29.1606 30.2347 31.3186 29.4319 33.2701C28.6291 35.2217 27.537 36.9011 26.1555 38.3085C24.774 39.6971 23.1497 40.7761 21.2828 41.5455C19.4346 42.3148 17.4463 42.6995 15.318 42.6995C13.2084 42.6995 11.2202 42.3054 9.35324 41.5173C7.505 40.7292 5.88078 39.6314 4.4806 38.2241C3.09908 36.8167 2.00693 35.1466 1.20416 33.2138C0.401387 31.2623 0 29.1231 0 26.7963V3.83651C0 1.71766 1.71766 0 3.83651 0H4.06714C6.05861 0 7.67302 1.61441 7.67302 3.60588V12.0212C7.67302 12.6935 8.60987 13.0567 9.15722 12.6663V12.6663C9.75463 12.2535 10.3894 11.9157 11.0615 11.653C11.7522 11.3903 12.4617 11.1933 13.1898 11.0619C13.9179 10.9118 14.6273 10.8367 15.318 10.8367C17.4463 10.8367 19.4346 11.2402 21.2828 12.0471C23.1497 12.8352 24.774 13.9423 26.1555 15.3684C27.537 16.7946 28.6291 18.4834 29.4319 20.435C30.2347 22.3677 30.6361 24.4882 30.6361 26.7963ZM22.935 26.7963C22.935 25.6328 22.7297 24.5539 22.319 23.5593C21.9269 22.546 21.3855 21.6734 20.6948 20.9416C20.004 20.2098 19.1919 19.6375 18.2584 19.2246C17.3436 18.8118 16.3635 18.6054 15.318 18.6054C14.2726 18.6054 13.2831 18.8399 12.3496 19.3091C11.4349 19.7594 10.6321 20.3693 9.94132 21.1386C9.25056 21.8892 8.70916 22.7618 8.31711 23.7563C7.92505 24.7321 7.72903 25.7454 7.72903 26.7963C7.72903 27.9597 7.92505 29.0387 8.31711 30.0332C8.70916 31.0277 9.25056 31.8909 9.94132 32.6228C10.6321 33.3546 11.4349 33.9363 12.3496 34.3679C13.2831 34.7807 14.2726 34.9871 15.318 34.9871C16.3635 34.9871 17.3436 34.7807 18.2584 34.3679C19.1919 33.9363 20.004 33.3546 20.6948 32.6228C21.3855 31.8909 21.9269 31.0277 22.319 30.0332C22.7297 29.0387 22.935 27.9597 22.935 26.7963Z" fill="white"/>
<path d="M164.364 26.7963C164.364 29.1606 164.765 31.3186 165.568 33.2701C166.371 35.2217 167.463 36.9011 168.845 38.3085C170.226 39.6971 171.85 40.7761 173.717 41.5455C175.565 42.3148 177.554 42.6995 179.682 42.6995C181.792 42.6995 183.78 42.3054 185.647 41.5173C187.495 40.7292 189.119 39.6314 190.519 38.2241C191.901 36.8167 192.993 35.1466 193.796 33.2138C194.599 31.2623 195 29.1231 195 26.7963V0H187.327V14.0737C186.916 13.5482 186.422 13.0791 185.843 12.6663C185.245 12.2535 184.611 11.9157 183.939 11.653C183.248 11.3903 182.538 11.1933 181.81 11.0619C181.082 10.9118 180.373 10.8367 179.682 10.8367C177.554 10.8367 175.565 11.2402 173.717 12.0471C171.85 12.8352 170.226 13.9423 168.845 15.3684C167.463 16.7946 166.371 18.4834 165.568 20.435C164.765 22.3677 164.364 24.4882 164.364 26.7963ZM172.065 26.7963C172.065 25.6328 172.27 24.5539 172.681 23.5593C173.073 22.546 173.614 21.6734 174.305 20.9416C174.996 20.2098 175.808 19.6375 176.742 19.2246C177.656 18.8118 178.636 18.6054 179.682 18.6054C180.727 18.6054 181.717 18.8399 182.65 19.3091C183.565 19.7594 184.368 20.3693 185.059 21.1386C185.749 21.8892 186.291 22.7618 186.683 23.7563C187.075 24.7321 187.271 25.7454 187.271 26.7963C187.271 27.9597 187.075 29.0387 186.683 30.0332C186.291 31.0277 185.749 31.8909 185.059 32.6228C184.368 33.3546 183.565 33.9363 182.65 34.3679C181.717 34.7807 180.727 34.9871 179.682 34.9871C178.636 34.9871 177.656 34.7807 176.742 34.3679C175.808 33.9363 174.996 33.3546 174.305 32.6228C173.614 31.8909 173.073 31.0277 172.681 30.0332C172.27 29.0387 172.065 27.9597 172.065 26.7963Z" fill="white"/>
<path fill-rule="evenodd" clip-rule="evenodd" d="M42.3852 34.6228C43.0838 34.9026 43.8281 35.0434 44.6181 35.045V42.702C42.7926 42.7004 41.0775 42.372 39.4728 41.7168C37.864 41.0599 36.4494 40.1309 35.229 38.9298C34.027 37.71 33.0747 36.2367 32.372 34.5102C31.6878 32.7648 31.3457 30.813 31.3457 28.6548V15.7811C31.3457 13.6871 33.0346 11.9895 35.118 11.9895C37.2014 11.9895 38.8903 13.6871 38.8903 15.7811V28.6548C38.8903 29.6682 39.0382 30.5784 39.3341 31.3854C39.6485 32.1736 40.0645 32.8399 40.5823 33.3841C41.1001 33.9284 41.701 34.3413 42.3852 34.6228ZM46.8512 34.6228C46.1526 34.9026 45.4083 35.0434 44.6183 35.045V42.702C46.4438 42.7004 48.1589 42.372 49.7636 41.7168C51.3724 41.0599 52.787 40.1309 54.0075 38.9298C55.2094 37.71 56.1617 36.2367 56.8644 34.5102C57.5486 32.7648 57.8907 30.813 57.8907 28.6548V15.7811C57.8907 13.6871 56.2018 11.9895 54.1184 11.9895C52.035 11.9895 50.3461 13.6871 50.3461 15.7811V28.6548C50.3461 29.6682 50.1982 30.5784 49.9023 31.3854C49.588 32.1736 49.1719 32.8399 48.6541 33.3841C48.1364 33.9284 47.5354 34.3413 46.8512 34.6228Z" fill="white"/>
<path fill-rule="evenodd" clip-rule="evenodd" d="M147.513 19.3494C148.212 19.0695 148.956 18.9288 149.746 18.9272C150.536 18.9288 151.281 19.0695 151.979 19.3494C152.663 19.6309 153.264 20.0438 153.782 20.588C154.3 21.1323 154.716 21.7985 155.03 22.5868C155.326 23.3937 155.474 24.3039 155.474 25.3174V38.2104C155.474 40.2937 157.163 41.9827 159.246 41.9827V41.9827C161.33 41.9827 163.019 40.2937 163.019 38.2104V25.3174C163.019 23.1592 162.677 21.2074 161.992 19.462C161.29 17.7354 160.337 16.2622 159.135 15.0423C157.915 13.8412 156.5 12.9122 154.892 12.2554C153.287 11.6002 151.572 11.2718 149.746 11.2701C149.742 11.2701 149.737 11.2701 149.732 11.2701C149.7 11.2701 149.668 11.2703 149.636 11.2706C147.851 11.2851 146.173 11.6134 144.601 12.2554C142.992 12.9122 141.577 13.8412 140.357 15.0423C139.155 16.2622 138.203 17.7354 137.5 19.462C136.816 21.2074 136.474 23.1592 136.474 25.3174V38.2104C136.474 40.2937 138.163 41.9827 140.246 41.9827V41.9827C142.329 41.9827 144.018 40.2937 144.018 38.2104V25.3174C144.018 24.3039 144.166 23.3937 144.462 22.5868C144.776 21.7985 145.192 21.1323 145.71 20.588C146.228 20.0438 146.829 19.6309 147.513 19.3494Z" fill="white"/>
<g filter="url(#filter0_d_718_4904)">
<path d="M88.5953 4.47144H39.3398L74.032 11.6119L59.8237 35.7709H83.0306L86.7011 29.7014H72.9664L88.5953 4.47144Z" fill="#FF5D00"/>
<path d="M79.6293 46.7979H128.885L94.1926 39.6573L108.401 15.4984H85.194L81.5235 21.5679H95.2582L79.6293 46.7979Z" fill="#FF5D00"/>
</g>
<defs>
<filter id="filter0_d_718_4904" x="37.2222" y="2.35384" width="93.7801" height="46.5616" filterUnits="userSpaceOnUse" color-interpolation-filters="sRGB">
<feFlood flood-opacity="0" result="BackgroundImageFix"/>
<feColorMatrix in="SourceAlpha" type="matrix" values="0 0 0 0 0 0 0 0 0 0 0 0 0 0 0 0 0 0 127 0" result="hardAlpha"/>
<feOffset/>
<feGaussianBlur stdDeviation="1.0588"/>
<feComposite in2="hardAlpha" operator="out"/>
<feColorMatrix type="matrix" values="0 0 0 0 0 0 0 0 0 0 0 0 0 0 0 0 0 0 0.15 0"/>
<feBlend mode="normal" in2="BackgroundImageFix" result="effect1_dropShadow_718_4904"/>
<feBlend mode="normal" in="SourceGraphic" in2="effect1_dropShadow_718_4904" result="shape"/>
</filter>
</defs>
</svg>
